/* XPM */
static char * bottom_right_inactive_xpm[] = {
"4 4 2 1",
" 	c None",
".	c #232C33",
"....",
"....",
"....",
"... "};
