/* XPM */
static char *close_inactive[] = {
/* columns rows colors chars-per-pixel */
"20 24 66 1 ",
"  c #918E8A",
". c #F9F8F8",
"X c gray100",
"o c #FEFEFE",
"O c #D4D2D0",
"+ c #9D9996",
"@ c #85827E",
"# c #EDECEB",
"$ c #FDFDFD",
"% c #E4E3E2",
"& c #D9D7D5",
"* c #EBE9E9",
"= c #6B6A6A",
"- c #E7E5E4",
"; c #F0EEEE",
": c #7E7D7D",
"> c #DBD9D8",
", c #7C7C7C",
"< c #F2F0F0",
"1 c #F6F5F5",
"2 c #7C7B7B",
"3 c #F1F1F1",
"4 c #F4F3F3",
"5 c #EBEAE9",
"6 c #D5D3D1",
"7 c gray95",
"8 c #DEDCDA",
"9 c #E0DEDD",
"0 c #E2E1DF",
"q c #EEEDED",
"w c gray93",
"e c #E2E1E0",
"r c #D6D4D2",
"t c #E9E8E8",
"y c #ECEAEA",
"u c #E1DFDE",
"i c #DEDDDC",
"p c #DCDBDA",
"a c #F2F1F0",
"s c #E0DFDE",
"d c #DFDDDC",
"f c gray97",
"g c #E1E0DF",
"h c #EAE9E8",
"j c #D0CECB",
"k c #CECBC9",
"l c #E3E2E1",
"z c #717070",
"x c #DFDDDB",
"c c #F9F9F9",
"v c #E2E0DF",
"b c gray85",
"n c #DCDAD9",
"m c #DDDBDA",
"M c #EBEAEA",
"N c #DEDCDB",
"B c #E7E5E5",
"V c #7D7C7C",
"C c #7C7A7A",
"Z c #929292",
"A c #7B7B7B",
"S c #CFCDCD",
"D c #B2B1B1",
"F c gray56",
"G c #D0CFCF",
"H c #B9B9B9",
/* pixels */
"@@@@@@@@@@@@@@@@@@@@",
"....................",
"558&&&&&&&&&&&&&&855",
"h>j              j>h",
">k aXXXXXXXXXXXXa k>",
"> #XXXXXXXXXXXXXX0 >",
"> Xoooooooooooooo. >",
"n XoooocoooocbHoo. n",
"p XoooZ:7oo7:zboo. p",
"m Xoof:=:77:=:foo. m",
"N X$$$3:=V,=:3$$$. N",
"i X$$$$3V==,3$$$$. i",
"d X....w2==2w..... d",
"9 X111M,=CA=,M111. 9",
"s X44q,=,tt,=,q44. s",
"g X<<<F2B<<B2zG<<. g",
"v X;;;;y;;;;ySD;;. v",
"e X##############. e",
"l #**************0 l",
"x0 O------------O 0x",
"r89              98r",
"66u%%%%%%%%%%%%%%u66",
"OOOOOOOOOOOOOOOOOOOO",
"++++++++++++++++++++"
};
