/* XPM */
static char *hide_inactive[] = {
/* columns rows colors chars-per-pixel */
"20 24 42 1 ",
"  c #918E8A",
". c #FEFEFE",
"X c #F9F8F8",
"o c gray100",
"O c #FDFDFD",
"+ c #D4D2D0",
"@ c #9D9996",
"# c #85827E",
"$ c #6B6A6A",
"% c #EDECEB",
"& c #F6F5F5",
"* c #E4E3E2",
"= c #F0EEEE",
"- c #D9D7D5",
"; c #EBE9E9",
": c #E7E5E4",
"> c #DBD9D8",
", c #F2F0F0",
"< c #F4F3F3",
"1 c #D5D3D1",
"2 c #DEDCDA",
"3 c #E2E1DF",
"4 c #EBEAE9",
"5 c #E0DEDD",
"6 c #E2E1E0",
"7 c #F2F1F0",
"8 c #CECBC9",
"9 c #E1DFDE",
"0 c #EAE9E8",
"q c #DEDDDC",
"w c #D6D4D2",
"e c #DCDBDA",
"r c #DEDCDB",
"t c #D0CECB",
"y c #E1E0DF",
"u c #E0DFDE",
"i c #DDDBDA",
"p c #DFDDDC",
"a c #E2E0DF",
"s c #E3E2E1",
"d c #DCDAD9",
"f c #DFDDDB",
/* pixels */
"####################",
"XXXXXXXXXXXXXXXXXXXX",
"442--------------244",
"0>t              t>0",
">8 7oooooooooooo7 8>",
"> %oooooooooooooo3 >",
"> o..............X >",
"d o..............X d",
"e o..............X e",
"i o..............X i",
"r oOOOOOOOOOOOOOOX r",
"q oOOOOOOOOOOOOOOX q",
"p oXXXXXXXXXXXXXXX p",
"5 o&&&&&&&&&&&&&&X 5",
"u o<<<$$$$$$$$<<<X u",
"y o,,,$$$$$$$$,,,X y",
"a o==============X a",
"6 o%%%%%%%%%%%%%%X 6",
"s %;;;;;;;;;;;;;;3 s",
"f3 +::::::::::::+ 3f",
"w25              52w",
"119**************911",
"++++++++++++++++++++",
"@@@@@@@@@@@@@@@@@@@@"
};
