/* XPM */
static char *maximize_toggled_inactive[] = {
/* columns rows colors chars-per-pixel */
"20 24 42 1 ",
"  c #918E8A",
". c #FEFEFE",
"X c #F9F8F8",
"o c gray100",
"O c #6B6A6A",
"+ c #D4D2D0",
"@ c #85827E",
"# c #FDFDFD",
"$ c #9D9996",
"% c #EDECEB",
"& c #F2F0F0",
"* c #F0EEEE",
"= c #E4E3E2",
"- c #D9D7D5",
"; c #EBE9E9",
": c #F6F5F5",
"> c #E7E5E4",
", c #F4F3F3",
"< c #DBD9D8",
"1 c #D5D3D1",
"2 c #DEDCDA",
"3 c #E2E1DF",
"4 c #EBEAE9",
"5 c #E0DEDD",
"6 c #E2E0DF",
"7 c #DCDBDA",
"8 c #CECBC9",
"9 c #F2F1F0",
"0 c #EAE9E8",
"q c #E0DFDE",
"w c #D6D4D2",
"e c #E2E1E0",
"r c #DFDDDB",
"t c #E3E2E1",
"y c #DCDAD9",
"u c #DEDCDB",
"i c #DDDBDA",
"p c #E1E0DF",
"a c #DEDDDC",
"s c #D0CECB",
"d c #DFDDDC",
"f c #E1DFDE",
/* pixels */
"@@@@@@@@@@@@@@@@@@@@",
"XXXXXXXXXXXXXXXXXXXX",
"442--------------244",
"0<s              s<0",
"<8 9oooooooooooo9 8<",
"< %oooooooooooooo3 <",
"< o..............X <",
"y o..............X y",
"7 o..............X 7",
"i o....OOOOOO....X i",
"u o####OOOOOO####X u",
"a o####O####O####X a",
"d oXXXXOXXXXOXXXXX d",
"5 o::::O::::O::::X 5",
"q o,,,,OOOOOO,,,,X q",
"p o&&&&&&&&&&&&&&X p",
"6 o**************X 6",
"e o%%%%%%%%%%%%%%X e",
"t %;;;;;;;;;;;;;;3 t",
"r3 +>>>>>>>>>>>>+ 3r",
"w25              52w",
"11f==============f11",
"++++++++++++++++++++",
"$$$$$$$$$$$$$$$$$$$$"
};
