/* XPM */
static char *maximize_inactive[] = {
/* columns rows colors chars-per-pixel */
"20 24 42 1 ",
"  c #918E8A",
". c #F9F8F8",
"X c #FEFEFE",
"o c gray100",
"O c #6B6A6A",
"+ c #FDFDFD",
"@ c #D4D2D0",
"# c #9D9996",
"$ c #85827E",
"% c #EDECEB",
"& c #E4E3E2",
"* c #F0EEEE",
"= c #D9D7D5",
"- c #EBE9E9",
"; c #F6F5F5",
": c #F4F3F3",
"> c #E7E5E4",
", c #DBD9D8",
"< c #F2F0F0",
"1 c #DEDCDA",
"2 c #E2E1DF",
"3 c #D5D3D1",
"4 c #EBEAE9",
"5 c #E0DEDD",
"6 c #D0CECB",
"7 c #DEDCDB",
"8 c #DFDDDB",
"9 c #E1DFDE",
"0 c #F2F1F0",
"q c #E0DFDE",
"w c #D6D4D2",
"e c #DCDBDA",
"r c #E1E0DF",
"t c #DCDAD9",
"y c #DFDDDC",
"u c #DEDDDC",
"i c #DDDBDA",
"p c #EAE9E8",
"a c #E2E0DF",
"s c #E3E2E1",
"d c #CECBC9",
"f c #E2E1E0",
/* pixels */
"$$$$$$$$$$$$$$$$$$$$",
"....................",
"441==============144",
"p,6              6,p",
",d 0oooooooooooo0 d,",
", %oooooooooooooo2 ,",
", oXXXXXXXXXXXXXX. ,",
"t oXXXXXXXXXXXXXX. t",
"e oXXXOOOOOOOOXXX. e",
"i oXXXOOOOOOOOXXX. i",
"7 o+++O++++++O+++. 7",
"u o+++O++++++O+++. u",
"y o...O......O.... y",
"5 o;;;O;;;;;;O;;;. 5",
"q o:::O::::::O:::. q",
"r o<<<OOOOOOOO<<<. r",
"a o**************. a",
"f o%%%%%%%%%%%%%%. f",
"s %--------------2 s",
"82 @>>>>>>>>>>>>@ 28",
"w15              51w",
"339&&&&&&&&&&&&&&933",
"@@@@@@@@@@@@@@@@@@@@",
"####################"
};
