/* XPM */
static char * title_5_active_xpm[] = {
"5 24 3 1",
" 	c None",
".	c #7C9FA6",
"+	c #7B9FAA",
".....",
".....",
".....",
".....",
".....",
".....",
".....",
".....",
".....",
".....",
".....",
".....",
".....",
".....",
".....",
".....",
".....",
".....",
".....",
".....",
".....",
".....",
"+++++",
"....."};
