/* XPM */
static char * top_left_inactive_xpm[] = {
"5 24 27 1",
" 	c None",
".	c #85827E",
"+	c #F4F4F3",
"@	c #F9F8F8",
"#	c #9D9996",
"$	c #D6D4D2",
"%	c #DDDBD9",
"&	c #DBD9D7",
"*	c #E7E6E5",
"=	c #E2E1E0",
"-	c #DEDCDA",
";	c #D8D6D4",
">	c #DCDAD8",
",	c #E5E4E3",
"'	c #D9D7D5",
")	c #D4D2D0",
"!	c #DAD8D6",
"~	c #E3E2E1",
"{	c #E6E5E4",
"]	c #E8E7E6",
"^	c #D5D3D1",
"/	c #E4E3E2",
"(	c #D7D5D3",
"_	c #E9E8E7",
":	c #EAE9E8",
"<	c #A4A19D",
"[	c #FFFFFF",
"     ",
"   .<",
"  .@@",
" .@::",
" <@__",
".+]]]",
".+***",
".+{{{",
".+,,,",
".+///",
".+~~~",
".+===",
".+---",
".+%%%",
".+>>>",
".+&&&",
".+!!!",
".+'''",
".+;;;",
".+(((",
".+$$$",
".+^^^",
".+)))",
".####"};
