/* XPM */
static char * top_right_inactive_xpm[] = {
"5 24 27 1",
" 	c None",
".	c #85827E",
"+	c #D2D0CE",
"@	c #9D9996",
"#	c #DBD9D7",
"$	c #DAD8D6",
"%	c #DCDAD8",
"&	c #E3E2E1",
"*	c #E2E1E0",
"=	c #E6E5E4",
"-	c #DEDCDA",
";	c #E7E6E5",
">	c #D7D5D3",
",	c #E5E4E3",
"'	c #D9D7D5",
")	c #D4D2D0",
"!	c #D8D6D4",
"~	c #D6D4D2",
"{	c #DDDBD9",
"]	c #E8E7E6",
"^	c #E4E3E2",
"/	c #D5D3D1",
"(	c #EAE9E8",
"_	c #F6F6F5",
":	c #E9E8E7",
"<	c #A4A19D",
"[	c #FFFFFF",
"     ",
"<.   ",
"__.  ",
"((+. ",
"::+< ",
"]]]+.",
";;;+.",
"===+.",
",,,+.",
"^^^+.",
"&&&+.",
"***+.",
"---+.",
"{{{+.",
"%%%+.",
"###+.",
"$$$+.",
"'''+.",
"!!!+.",
">>>+.",
"~~~+.",
"///+.",
")))+.",
"@@@@."};
