/* XPM */
static char * bg_tiled_xpm[] = {
"8 8 4 1",
" 	c None",
".	c #DDDDDD",
"+	c #CCCCCC",
"@	c #EEEEEE",
".+++++++",
"+.@+++@+",
"++.+++++",
"@+++@+++",
"++++++.+",
"++@++.@+",
"++++.+++",
"@+++@+++"};
