#define close_width 16
#define close_height 16
static unsigned char close_bits[] = {
   0x07, 0xe0, 0x0f, 0xf0, 0x1f, 0xf8, 0x3e, 0x7c, 0x7c, 0x3e, 0xf8, 0x1f,
   0xf0, 0x0f, 0xe0, 0x07, 0xe0, 0x07, 0xf0, 0x0f, 0xf8, 0x1f, 0x7c, 0x3e,
   0x3e, 0x7c, 0x1f, 0xf8, 0x0f, 0xf0, 0x07, 0xe0 };
